<mxfile host="app.diagrams.net" modified="2022-12-02T08:55:18.369Z" agent="5.0 (Macintosh; Intel Mac OS X 10_15_7) AppleWebKit/537.36 (KHTML, like Gecko) Chrome/107.0.0.0 Safari/537.36" etag="zuA6bA5-p3j3xemVXtWT" version="20.6.0" type="github">
  <diagram id="xdz3pwgSR_wqxvYa8TG_" name="Page-1">
    <mxGraphModel dx="946" dy="525" grid="1" gridSize="10" guides="1" tooltips="1" connect="1" arrows="1" fold="1" page="1" pageScale="1" pageWidth="850" pageHeight="1100" math="0" shadow="0">
      <root>
        <mxCell id="0" />
        <mxCell id="1" parent="0" />
        <mxCell id="pzktmZQztW74WQaNHcbx-3" style="edgeStyle=orthogonalEdgeStyle;rounded=0;orthogonalLoop=1;jettySize=auto;html=1;entryX=0.5;entryY=0;entryDx=0;entryDy=0;" parent="1" source="pzktmZQztW74WQaNHcbx-1" target="pzktmZQztW74WQaNHcbx-2" edge="1">
          <mxGeometry relative="1" as="geometry" />
        </mxCell>
        <mxCell id="pzktmZQztW74WQaNHcbx-1" value="&lt;div style=&quot;&quot;&gt;Get the csv file with the Artist ID mapped to the ULAN ID&lt;br&gt;&lt;/div&gt;" style="rounded=0;whiteSpace=wrap;html=1;" parent="1" vertex="1">
          <mxGeometry x="187.5" y="320" width="262.5" height="60" as="geometry" />
        </mxCell>
        <mxCell id="pzktmZQztW74WQaNHcbx-7" style="edgeStyle=orthogonalEdgeStyle;rounded=0;orthogonalLoop=1;jettySize=auto;html=1;entryX=0.5;entryY=0;entryDx=0;entryDy=0;" parent="1" source="pzktmZQztW74WQaNHcbx-2" target="pzktmZQztW74WQaNHcbx-5" edge="1">
          <mxGeometry relative="1" as="geometry" />
        </mxCell>
        <mxCell id="pzktmZQztW74WQaNHcbx-2" value="Crawler script in Getty for crawling data of specified fields" style="rounded=0;whiteSpace=wrap;html=1;" parent="1" vertex="1">
          <mxGeometry x="187.5" y="450" width="262.5" height="60" as="geometry" />
        </mxCell>
        <mxCell id="pzktmZQztW74WQaNHcbx-9" style="edgeStyle=orthogonalEdgeStyle;rounded=0;orthogonalLoop=1;jettySize=auto;html=1;entryX=0.5;entryY=0;entryDx=0;entryDy=0;" parent="1" source="pzktmZQztW74WQaNHcbx-5" target="pzktmZQztW74WQaNHcbx-8" edge="1">
          <mxGeometry relative="1" as="geometry" />
        </mxCell>
        <mxCell id="pzktmZQztW74WQaNHcbx-11" style="edgeStyle=orthogonalEdgeStyle;rounded=0;orthogonalLoop=1;jettySize=auto;html=1;entryX=1;entryY=0.5;entryDx=0;entryDy=0;" parent="1" source="pzktmZQztW74WQaNHcbx-5" target="pzktmZQztW74WQaNHcbx-2" edge="1">
          <mxGeometry relative="1" as="geometry">
            <Array as="points">
              <mxPoint x="510" y="610" />
              <mxPoint x="510" y="480" />
            </Array>
          </mxGeometry>
        </mxCell>
        <mxCell id="pzktmZQztW74WQaNHcbx-5" value="Manual data validation" style="rhombus;whiteSpace=wrap;html=1;" parent="1" vertex="1">
          <mxGeometry x="197.5" y="570" width="242.5" height="80" as="geometry" />
        </mxCell>
        <mxCell id="pzktmZQztW74WQaNHcbx-14" style="edgeStyle=orthogonalEdgeStyle;rounded=0;orthogonalLoop=1;jettySize=auto;html=1;entryX=0.5;entryY=0;entryDx=0;entryDy=0;" parent="1" source="pzktmZQztW74WQaNHcbx-8" target="pzktmZQztW74WQaNHcbx-13" edge="1">
          <mxGeometry relative="1" as="geometry" />
        </mxCell>
        <mxCell id="pzktmZQztW74WQaNHcbx-8" value="Upload and write AE database via csv import function" style="rounded=0;whiteSpace=wrap;html=1;" parent="1" vertex="1">
          <mxGeometry x="202.81" y="720" width="231.87" height="60" as="geometry" />
        </mxCell>
        <mxCell id="pzktmZQztW74WQaNHcbx-10" value="Data verification passed" style="text;html=1;align=center;verticalAlign=middle;resizable=0;points=[];autosize=1;strokeColor=none;fillColor=none;" parent="1" vertex="1">
          <mxGeometry x="310" y="670" width="150" height="30" as="geometry" />
        </mxCell>
        <mxCell id="pzktmZQztW74WQaNHcbx-12" value="Data validation failed" style="text;html=1;align=center;verticalAlign=middle;resizable=0;points=[];autosize=1;strokeColor=none;fillColor=none;" parent="1" vertex="1">
          <mxGeometry x="379.38" y="535" width="130" height="30" as="geometry" />
        </mxCell>
        <mxCell id="pzktmZQztW74WQaNHcbx-16" style="edgeStyle=orthogonalEdgeStyle;rounded=0;orthogonalLoop=1;jettySize=auto;html=1;entryX=0.5;entryY=0;entryDx=0;entryDy=0;" parent="1" source="pzktmZQztW74WQaNHcbx-13" target="pzktmZQztW74WQaNHcbx-15" edge="1">
          <mxGeometry relative="1" as="geometry" />
        </mxCell>
        <mxCell id="pzktmZQztW74WQaNHcbx-20" style="edgeStyle=orthogonalEdgeStyle;rounded=0;orthogonalLoop=1;jettySize=auto;html=1;entryX=0;entryY=0.5;entryDx=0;entryDy=0;" parent="1" source="pzktmZQztW74WQaNHcbx-13" target="Glw_iH2KXRrhDjnAXToU-1" edge="1">
          <mxGeometry relative="1" as="geometry">
            <Array as="points">
              <mxPoint x="120" y="880" />
              <mxPoint x="120" y="250" />
            </Array>
          </mxGeometry>
        </mxCell>
        <mxCell id="pzktmZQztW74WQaNHcbx-13" value="Whether to add an Artist ID or modify a ULAN ID" style="rhombus;whiteSpace=wrap;html=1;" parent="1" vertex="1">
          <mxGeometry x="153.76" y="840" width="331.25" height="80" as="geometry" />
        </mxCell>
        <mxCell id="pzktmZQztW74WQaNHcbx-15" value="End" style="rounded=1;whiteSpace=wrap;html=1;" parent="1" vertex="1">
          <mxGeometry x="259.38" y="970" width="120" height="50" as="geometry" />
        </mxCell>
        <mxCell id="Glw_iH2KXRrhDjnAXToU-2" style="edgeStyle=orthogonalEdgeStyle;rounded=0;orthogonalLoop=1;jettySize=auto;html=1;entryX=0.5;entryY=0;entryDx=0;entryDy=0;" edge="1" parent="1" source="pzktmZQztW74WQaNHcbx-17" target="Glw_iH2KXRrhDjnAXToU-1">
          <mxGeometry relative="1" as="geometry" />
        </mxCell>
        <mxCell id="pzktmZQztW74WQaNHcbx-17" value="Start" style="rounded=1;whiteSpace=wrap;html=1;" parent="1" vertex="1">
          <mxGeometry x="259.38" y="130" width="120" height="50" as="geometry" />
        </mxCell>
        <mxCell id="pzktmZQztW74WQaNHcbx-19" value="No" style="text;html=1;align=center;verticalAlign=middle;resizable=0;points=[];autosize=1;strokeColor=none;fillColor=none;" parent="1" vertex="1">
          <mxGeometry x="310" y="930" width="40" height="30" as="geometry" />
        </mxCell>
        <mxCell id="pzktmZQztW74WQaNHcbx-23" value="Yes" style="text;html=1;align=center;verticalAlign=middle;resizable=0;points=[];autosize=1;strokeColor=none;fillColor=none;" parent="1" vertex="1">
          <mxGeometry x="113.76" y="855" width="40" height="30" as="geometry" />
        </mxCell>
        <mxCell id="Glw_iH2KXRrhDjnAXToU-5" style="edgeStyle=orthogonalEdgeStyle;rounded=0;orthogonalLoop=1;jettySize=auto;html=1;" edge="1" parent="1" source="Glw_iH2KXRrhDjnAXToU-1" target="pzktmZQztW74WQaNHcbx-1">
          <mxGeometry relative="1" as="geometry" />
        </mxCell>
        <mxCell id="Glw_iH2KXRrhDjnAXToU-1" value="Manual collection of Artists who need to add or update their ULAN ID" style="rounded=0;whiteSpace=wrap;html=1;" vertex="1" parent="1">
          <mxGeometry x="198.75" y="220" width="241.26" height="60" as="geometry" />
        </mxCell>
      </root>
    </mxGraphModel>
  </diagram>
</mxfile>
